<?xml version="1.0" standalone="no"?>
<!DOCTYPE svg PUBLIC "-//W3C//DTD SVG 20010904//EN"
 "http://www.w3.org/TR/2001/REC-SVG-20010904/DTD/svg10.dtd">
<svg version="1.0" xmlns="http://www.w3.org/2000/svg"
 width="400.000000pt" height="400.000000pt" viewBox="0 0 400.000000 400.000000"
 preserveAspectRatio="xMidYMid meet">
<metadata>
Created by potrace 1.14, written by Peter Selinger 2001-2017
</metadata>
<g transform="translate(0.000000,400.000000) scale(0.100000,-0.100000)"
fill="#000000" stroke="none">
<path d="M2890 3629 c-206 -57 -571 -366 -705 -596 -19 -32 -20 -32 -89 -31
-138 3 -227 -32 -322 -127 -66 -65 -95 -114 -114 -194 -11 -48 -13 -50 -53
-56 -53 -9 -324 -77 -397 -100 -113 -35 -356 -116 -375 -125 -69 -32 -146 -51
-260 -65 -361 -42 -408 -52 -466 -97 -40 -32 -88 -111 -99 -161 -15 -75 11
-490 36 -561 21 -60 90 -130 148 -149 33 -11 46 -22 66 -62 32 -62 70 -90 120
-90 50 0 89 29 115 84 l20 43 59 -6 c32 -3 76 -6 98 -6 36 0 40 -3 57 -42 55
-127 174 -127 243 1 17 31 41 39 68 21 13 -8 13 -10 -2 -10 -27 0 -77 -69 -84
-117 -6 -40 -9 -43 -48 -53 -22 -6 -65 -18 -93 -27 l-53 -17 -35 41 c-47 55
-89 69 -144 47 -47 -18 -60 -37 -76 -109 l-11 -50 -100 -25 c-136 -36 -188
-63 -229 -119 -48 -65 -57 -119 -45 -254 9 -88 16 -121 35 -154 64 -108 145
-122 400 -68 39 9 138 26 220 40 83 13 258 43 390 66 132 23 276 47 320 55
224 37 268 45 370 63 61 11 191 33 290 51 253 43 413 102 558 206 26 19 50 34
53 34 3 0 35 -14 71 -31 147 -70 379 -105 638 -96 242 9 329 38 389 132 14 22
20 47 19 92 0 52 -6 73 -38 129 -20 37 -56 93 -80 124 -46 60 -241 250 -256
250 -27 0 -2 23 48 45 128 57 295 165 368 240 66 67 95 151 76 221 -27 102
-214 214 -416 250 -22 4 -50 10 -62 15 -21 8 -20 10 25 57 93 95 180 209 210
272 47 102 58 183 30 231 -39 71 -72 95 -168 123 -73 22 -292 22 -400 0 -45
-9 -84 -14 -87 -10 -4 3 4 55 18 114 20 88 24 134 24 257 0 143 -1 152 -27
200 -33 63 -62 90 -113 104 -47 13 -87 13 -135 0z m125 -126 c29 -28 35 -61
35 -179 0 -134 -29 -289 -87 -463 -27 -82 -23 -113 17 -126 39 -12 66 2 82 44
11 28 23 42 40 45 217 42 389 50 483 22 33 -9 66 -25 73 -34 59 -77 -82 -291
-343 -521 l-119 -105 -17 82 c-32 161 -108 280 -230 358 -133 86 -263 109
-434 78 -28 -5 -32 -2 -64 61 -35 69 -98 141 -150 173 l-30 18 32 45 c123 173
299 336 492 456 23 15 93 49 115 56 33 12 89 6 105 -10z m-283 -914 c167 -33
301 -173 328 -343 29 -184 -65 -363 -236 -447 -66 -33 -74 -34 -179 -34 -94 0
-117 4 -160 24 -103 49 -177 122 -222 219 -27 58 -45 180 -25 168 7 -4 12 -22
12 -39 0 -128 92 -208 138 -121 8 15 7 34 -5 73 -9 33 -14 76 -11 112 4 51 9
63 44 101 22 24 46 57 54 74 26 58 127 92 223 74 71 -14 105 -32 148 -77 68
-73 74 -89 74 -194 0 -88 -2 -99 -29 -139 -75 -114 -173 -151 -335 -125 -47 7
-56 6 -67 -10 -33 -45 -9 -95 51 -110 147 -36 295 2 391 103 58 60 88 115 110
201 15 58 16 78 7 130 -25 133 -94 234 -206 299 -82 47 -191 61 -299 36 -16
-4 -28 -2 -28 4 0 11 76 29 132 31 20 0 61 -4 90 -10z m-342 -34 c0 -150 -107
-249 -325 -301 -70 -17 -118 -19 -375 -18 -246 0 -320 4 -445 22 -144 21 -283
47 -291 54 -4 4 247 88 336 112 30 8 87 24 125 35 39 10 86 22 105 25 19 4 53
11 75 16 212 49 443 77 638 79 l157 1 0 -25z m-1595 -336 c52 -15 228 -49 293
-55 l62 -7 0 -36 c0 -61 17 -144 40 -191 38 -81 50 -98 100 -143 90 -81 181
-117 300 -117 225 0 403 155 433 378 9 62 15 82 27 82 8 0 24 3 35 6 19 5 22
-2 32 -59 31 -181 172 -345 353 -409 93 -32 257 -32 349 0 45 16 67 20 74 13
6 -6 13 -66 15 -134 4 -104 1 -136 -17 -203 -63 -228 -212 -381 -476 -487 -97
-39 -214 -63 -591 -122 -50 -8 -98 -17 -105 -20 -8 -2 -57 -11 -109 -19 -146
-23 -262 -43 -415 -71 -77 -14 -168 -30 -203 -35 -35 -6 -129 -22 -210 -36
-361 -64 -455 -78 -486 -70 -28 7 -63 64 -54 88 3 7 89 36 199 67 107 29 232
64 279 78 47 13 101 28 120 33 19 5 67 18 105 29 39 11 97 28 130 36 68 19
163 46 263 75 86 25 260 73 381 106 94 25 95 25 168 8 88 -21 162 -11 249 33
98 50 155 126 180 243 26 121 -14 240 -110 326 -64 58 -122 84 -207 91 -82 7
-157 -14 -229 -63 l-52 -35 -141 10 c-78 5 -203 13 -277 16 -179 7 -604 36
-609 41 -2 2 -6 28 -9 57 -4 49 -2 55 22 70 31 21 33 56 11 217 -15 112 -19
213 -9 223 7 7 35 2 89 -14z m555 -119 c0 -66 55 -154 123 -197 36 -23 53 -27
117 -27 63 0 81 4 116 26 69 44 124 125 124 184 0 21 5 24 40 24 40 0 40 0 40
-40 0 -91 -68 -204 -149 -244 -133 -68 -301 -43 -405 60 -42 41 -86 144 -86
199 l0 45 40 0 c38 0 40 -2 40 -30z m701 -535 c49 -18 83 -44 118 -94 35 -48
41 -160 14 -223 -79 -177 -342 -174 -424 5 -83 185 98 379 292 312z m-1661
-10 c85 -3 254 -12 375 -21 121 -8 312 -19 425 -24 113 -5 260 -13 328 -16
l123 -7 -7 -31 c-3 -17 -9 -34 -13 -38 -3 -4 -110 -3 -236 2 -1196 48 -1170
46 -1209 101 -27 39 -21 51 22 45 20 -3 107 -8 192 -11z m2985 -97 c8 -7 31
-26 52 -43 152 -120 292 -283 323 -374 24 -73 -16 -108 -144 -131 -173 -30
-569 8 -704 67 l-53 23 34 48 c72 99 137 255 137 331 l0 31 79 0 c77 0 161 18
211 46 31 17 48 17 65 2z m-2185 -175 c6 -16 15 -36 21 -46 20 -35 1 -29 -27
9 -16 20 -42 43 -59 50 l-30 13 43 1 c38 0 44 -3 52 -27z m467 -90 c3 -10 15
-31 26 -46 10 -16 17 -30 15 -32 -3 -3 -82 -26 -213 -60 -76 -21 -282 -78
-450 -125 -380 -106 -470 -132 -650 -180 -60 -16 -121 -33 -134 -36 -23 -7
-24 -6 -18 31 11 66 48 93 175 126 42 12 106 29 142 39 89 25 215 59 275 75
28 7 86 23 130 35 44 12 127 35 185 51 126 34 249 68 390 108 127 36 119 35
127 14z"/>
<path d="M2560 2374 c-85 -37 -123 -100 -123 -201 0 -64 3 -76 29 -110 40 -53
63 -71 109 -84 118 -33 221 13 266 119 23 53 24 94 3 154 -37 109 -177 169
-284 122z"/>
<path d="M1930 1533 c-72 -25 -100 -46 -124 -96 -42 -83 -28 -169 35 -230 39
-37 69 -47 138 -47 48 0 65 5 98 29 90 65 113 163 60 253 -40 69 -142 114
-207 91z m96 -141 c29 -39 22 -80 -21 -108 -56 -37 -123 32 -91 94 9 17 21 33
28 36 22 9 70 -3 84 -22z"/>
</g>
</svg>
